<?xml version="1.0" encoding="UTF-8"?>
<svg xmlns="http://www.w3.org/2000/svg" xmlns:xlink="http://www.w3.org/1999/xlink" viewBox="0 0 25 25" width="25px" height="25px">
<g id="surface179260991">
<path style=" stroke:none;fill-rule:nonzero;fill:rgb(18.82353%,19.215687%,21.568628%);fill-opacity:1;" d="M 10.417969 2.082031 L 9.375 3.125 L 4.167969 3.125 L 4.167969 5.207031 L 5.207031 5.207031 L 5.207031 20.832031 C 5.207031 21.378906 5.40625 21.933594 5.800781 22.324219 C 6.191406 22.71875 6.746094 22.917969 7.292969 22.917969 L 17.707031 22.917969 C 18.253906 22.917969 18.808594 22.71875 19.199219 22.324219 C 19.59375 21.933594 19.792969 21.378906 19.792969 20.832031 L 19.792969 5.207031 L 20.832031 5.207031 L 20.832031 3.125 L 15.625 3.125 L 14.582031 2.082031 Z M 7.292969 5.207031 L 17.707031 5.207031 L 17.707031 20.832031 L 7.292969 20.832031 Z M 9.375 7.292969 L 9.375 18.75 L 11.457031 18.75 L 11.457031 7.292969 Z M 13.542969 7.292969 L 13.542969 18.75 L 15.625 18.75 L 15.625 7.292969 Z M 13.542969 7.292969 "/>
</g>
</svg>
